# xmcd
#
# Track frame offsets: 
#        150
#        19600
#        34890
#        45487
#        58935
#        72033
#        79420
#        95355
#        109121
#        124324
#        134914
#        147129
#        162169
#        174945
#        191989
#        200322
#        213729
#        230117
#        245069
#        256130
#
# Disc length: 3515 seconds
#
# Revision: 1
# Processed by: cddbd v1.5.2PL0 Copyright (c) Steve Scherf et al.
# Submitted via: ExactAudioCopy v0.95b4
#
DISCID=2e0db914
DTITLE=Noel Akchote - So Lucky
DYEAR=2006
DGENRE=Jazz
TTITLE0=Bittersweet Goodbye
TTITLE1=Some Kind Of Bliss
TTITLE2=My Secret Heart
TTITLE3=Come Into My World
TTITLE4=Red Blooded Woman
TTITLE5=The Loco-Motion
TTITLE6=Can't Get You Out Of My Head
TTITLE7=Giving You Up
TTITLE8=Confide In Me
TTITLE9=Tears On My Pillow
TTITLE10=Fragile
TTITLE11=Slow
TTITLE12=Tell Tale Signs
TTITLE13=I Should Be So Lucky
TTITLE14=Wouldn't Change A Thing
TTITLE15=Turn It Into Love
TTITLE16=Especially For You
TTITLE17=Fever
TTITLE18=I'll Still Be Loving You
TTITLE19=The Crying Game
EXTD=YEAR: 2006
EXTT0=
EXTT1=
EXTT2=
EXTT3=
EXTT4=
EXTT5=
EXTT6=
EXTT7=
EXTT8=
EXTT9=
EXTT10=
EXTT11=
EXTT12=
EXTT13=
EXTT14=
EXTT15=
EXTT16=
EXTT17=
EXTT18=
EXTT19=
PLAYORDER=
